# xmcd CD database file
#
# Track frame offsets:
#	150
#	20941
#	40796
#	67139
#	94190
#	116304
#	136828
#	157353
#	181694
#	199796
#	213890
#	229716
#	246094
#	256675
#
# Disc length: 3661 seconds
#
# Revision: 0
# Processed by: cddbd v1.5.1PL2 Copyright (c) Steve Scherf et al.
# Submitted via: CDex 1.51
#
DISCID=bf0e4b0e
DTITLE=Bill Tiberio Group - The Story Ends...The Story Begins
DYEAR=2003
DGENRE=Jazz
TTITLE0=My Wife's Gulasch
TTITLE1=The Story Ends..The Story Begins
TTITLE2=Mind Games
TTITLE3=Since I Fell for You
TTITLE4=August Nights
TTITLE5=Joanne
TTITLE6=Tenderly
TTITLE7=Chittlin Con Carne
TTITLE8=Sanibel Breeze
TTITLE9=Hopper Hills Boogaloo
TTITLE10=Inframe
TTITLE11=Can't You See
TTITLE12=Blues for J
TTITLE13=Us
EXTD=YEAR: 2003
EXTT0=
EXTT1=
EXTT2=
EXTT3=
EXTT4=
EXTT5=
EXTT6=
EXTT7=
EXTT8=
EXTT9=
EXTT10=
EXTT11=
EXTT12=
EXTT13=
PLAYORDER=
